# Blender v2.79 (sub 0) OBJ File: 'chair.blend'
# www.blender.org
o Chair_Cube
v 0.640160 1.175704 -0.438718
v 0.640160 1.175704 0.841602
v 0.640160 1.278685 0.841602
v 0.476732 1.175704 -0.438718
v 0.476732 1.175704 0.841602
v 0.476732 1.278685 0.841602
v 0.640160 1.175704 -0.283922
v 0.640160 1.175704 0.686805
v 0.640160 1.278685 0.686806
v 0.454512 1.326400 0.596766
v 0.476732 1.175704 -0.283922
v 0.476732 1.175704 0.686805
v 0.476732 0.005353 -0.406108
v 0.640160 0.005353 -0.406108
v 0.640160 0.005353 0.719416
v 0.640160 0.005353 0.874212
v 0.476732 0.005353 0.874212
v 0.476732 0.005353 0.719415
v 0.640160 0.005353 -0.251311
v 0.476732 0.005353 -0.251311
v 0.476733 1.278685 -0.438718
v 0.640160 1.278685 -0.438718
v 0.393277 1.326400 -0.147940
v 0.640160 1.278685 -0.283921
v 0.476733 2.930220 -0.478720
v 0.640160 2.930220 -0.478720
v 0.476732 2.930220 -0.323923
v 0.640160 2.930220 -0.323923
v 0.476733 2.789583 -0.475314
v 0.640160 2.789583 -0.475313
v 0.640160 2.789583 -0.320516
v 0.476732 2.789583 -0.320517
v 0.537967 1.278685 0.732747
v 0.476732 1.278685 -0.283921
v 0.640160 2.007477 -0.456370
v 0.476732 2.007477 -0.301574
v 0.476733 2.007477 -0.456370
v 0.640160 2.007477 -0.301573
v 0.397519 2.666306 -0.279750
v 0.397519 2.144109 -0.267102
v -0.640160 1.175704 -0.438718
v -0.640160 1.175704 0.841602
v -0.640160 1.278685 0.841602
v -0.476732 1.175704 -0.438718
v -0.476732 1.175704 0.841602
v -0.476732 1.278685 0.841602
v -0.640160 1.175704 -0.283921
v -0.640160 1.175704 0.686805
v -0.640160 1.278685 0.686806
v -0.454512 1.326400 0.596766
v -0.476732 1.175704 -0.283921
v -0.476732 1.175704 0.686805
v -0.476732 0.005353 -0.406108
v -0.640160 0.005353 -0.406108
v -0.640160 0.005353 0.719416
v -0.640160 0.005353 0.874212
v -0.476732 0.005353 0.874212
v -0.476732 0.005353 0.719415
v -0.640160 0.005353 -0.251311
v -0.476732 0.005353 -0.251311
v -0.476733 1.278685 -0.438718
v -0.640160 1.278685 -0.438718
v -0.393277 1.326400 -0.147940
v -0.640160 1.278685 -0.283921
v -0.476733 2.930220 -0.478720
v -0.640160 2.930220 -0.478720
v -0.476732 2.930220 -0.323923
v -0.640160 2.930220 -0.323923
v 0.000000 1.175704 -0.438718
v 0.000000 1.175704 0.841602
v 0.000000 1.278685 -0.438718
v 0.000000 1.278685 0.841602
v 0.000000 1.175704 -0.283921
v 0.000000 1.175704 0.686805
v 0.000000 1.278685 -0.283921
v 0.000000 1.278685 0.732747
v -0.476733 2.789583 -0.475314
v -0.640160 2.789583 -0.475313
v -0.640160 2.789583 -0.320516
v -0.476732 2.789583 -0.320517
v -0.000000 2.930220 -0.478721
v 0.000000 2.930220 -0.323925
v -0.000000 2.789583 -0.475315
v 0.000000 2.789583 -0.320518
v -0.537967 1.278685 0.732747
v 0.000000 1.326400 0.596766
v 0.000000 1.326400 -0.147941
v -0.476732 1.278685 -0.283921
v -0.640160 2.007477 -0.456370
v -0.476732 2.007477 -0.301573
v -0.476733 2.007477 -0.456370
v -0.640160 2.007477 -0.301573
v 0.000000 2.789583 -0.320517
v 0.000000 2.007477 -0.301574
v -0.397519 2.666306 -0.279750
v -0.397519 2.144109 -0.267101
v 0.000000 2.666306 -0.279750
v 0.000000 2.144109 -0.267102
vn 0.0000 1.0000 0.0000
vn 0.0000 0.0000 -1.0000
vn 1.0000 -0.0000 0.0000
vn -0.0000 -0.0000 1.0000
vn 0.0000 -1.0000 0.0000
vn -1.0000 -0.0000 -0.0000
vn 0.0000 0.0279 0.9996
vn 0.0000 -0.0279 -0.9996
vn -0.0000 0.0242 0.9997
vn 0.0000 -0.0242 -0.9997
vn -0.0000 0.9436 0.3311
vn 0.4961 0.8676 -0.0345
vn 0.0000 0.9436 -0.3311
vn 0.4304 0.0219 0.9024
vn 0.0000 0.3140 0.9494
vn 0.0000 -0.2446 0.9696
vn -0.4961 0.8676 -0.0345
vn -0.4304 0.0219 0.9024
s off
f 33//1 6//1 3//1 9//1
f 4//2 21//2 22//2 1//2
f 8//3 9//3 3//3 2//3
f 2//4 3//4 6//4 5//4
f 69//2 71//2 21//2 4//2
f 76//1 72//1 6//1 33//1
f 74//5 12//5 5//5 70//5
f 69//5 4//5 11//5 73//5
f 73//5 11//5 12//5 74//5
f 8//3 2//3 16//3 15//3
f 71//1 75//1 34//1 21//1
f 87//1 86//1 10//1 23//1
f 1//3 22//3 24//3 7//3
f 7//3 24//3 9//3 8//3
f 34//1 33//1 9//1 24//1
f 11//5 7//5 8//5 12//5
f 18//5 15//5 16//5 17//5
f 13//5 14//5 19//5 20//5
f 5//6 12//6 18//6 17//6
f 11//6 4//6 13//6 20//6
f 7//7 11//7 20//7 19//7
f 2//7 5//7 17//7 16//7
f 12//8 8//8 15//8 18//8
f 4//8 1//8 14//8 13//8
f 1//3 7//3 19//3 14//3
f 32//9 31//9 28//9 27//9
f 30//10 29//10 25//10 26//10
f 25//1 27//1 28//1 26//1
f 31//3 30//3 26//3 28//3
f 5//4 6//4 72//4 70//4
f 37//6 36//6 32//6 29//6
f 38//3 35//3 30//3 31//3
f 35//10 37//10 29//10 30//10
f 36//9 38//9 31//9 32//9
f 32//9 27//9 82//9 84//9
f 27//1 25//1 81//1 82//1
f 29//5 32//5 84//5 83//5
f 25//10 29//10 83//10 81//10
f 10//11 86//11 76//11 33//11
f 23//12 10//12 33//12 34//12
f 87//13 23//13 34//13 75//13
f 34//9 24//9 38//9 36//9
f 22//10 21//10 37//10 35//10
f 24//3 22//3 35//3 38//3
f 21//6 34//6 36//6 37//6
f 32//14 39//14 40//14 36//14
f 39//9 97//9 98//9 40//9
f 93//15 97//15 39//15 32//15
f 36//16 40//16 98//16 94//16
f 32//10 36//10 94//10 93//10
f 85//1 49//1 43//1 46//1
f 44//2 41//2 62//2 61//2
f 48//6 42//6 43//6 49//6
f 42//4 45//4 46//4 43//4
f 69//2 44//2 61//2 71//2
f 76//1 85//1 46//1 72//1
f 74//5 70//5 45//5 52//5
f 69//5 73//5 51//5 44//5
f 73//5 74//5 52//5 51//5
f 48//6 55//6 56//6 42//6
f 71//1 61//1 88//1 75//1
f 87//1 63//1 50//1 86//1
f 41//6 47//6 64//6 62//6
f 47//6 48//6 49//6 64//6
f 88//1 64//1 49//1 85//1
f 51//5 52//5 48//5 47//5
f 58//5 57//5 56//5 55//5
f 53//5 60//5 59//5 54//5
f 45//3 57//3 58//3 52//3
f 51//3 60//3 53//3 44//3
f 47//7 59//7 60//7 51//7
f 42//7 56//7 57//7 45//7
f 52//8 58//8 55//8 48//8
f 44//8 53//8 54//8 41//8
f 41//6 54//6 59//6 47//6
f 80//9 67//9 68//9 79//9
f 78//10 66//10 65//10 77//10
f 65//1 66//1 68//1 67//1
f 79//6 68//6 66//6 78//6
f 45//4 70//4 72//4 46//4
f 91//3 77//3 80//3 90//3
f 92//6 79//6 78//6 89//6
f 89//10 78//10 77//10 91//10
f 90//9 80//9 79//9 92//9
f 80//9 84//9 82//9 67//9
f 83//3 81//3 82//3 84//3
f 67//1 82//1 81//1 65//1
f 77//5 83//5 84//5 80//5
f 65//10 81//10 83//10 77//10
f 50//11 85//11 76//11 86//11
f 63//17 88//17 85//17 50//17
f 87//13 75//13 88//13 63//13
f 88//9 90//9 92//9 64//9
f 62//10 89//10 91//10 61//10
f 64//6 92//6 89//6 62//6
f 61//3 91//3 90//3 88//3
f 80//18 90//18 96//18 95//18
f 95//9 96//9 98//9 97//9
f 93//15 80//15 95//15 97//15
f 90//16 94//16 98//16 96//16
f 80//10 93//10 94//10 90//10
