# Blender v2.79 (sub 0) OBJ File: 'chair.blend'
# www.blender.org
o Chair_Cube
v 0.640160 1.175704 -0.438718
v 0.640160 1.175704 0.841602
v 0.640160 1.278685 0.841602
v 0.476732 1.175704 -0.438718
v 0.476732 1.175704 0.841602
v 0.476732 1.278685 0.841602
v 0.640160 1.175704 -0.283922
v 0.640160 1.175704 0.686805
v 0.640160 1.278685 0.686806
v 0.454512 1.326400 0.596766
v 0.476732 1.175704 -0.283922
v 0.476732 1.175704 0.686805
v 0.476732 0.005353 -0.406108
v 0.640160 0.005353 -0.406108
v 0.640160 0.005353 0.719416
v 0.640160 0.005353 0.874212
v 0.476732 0.005353 0.874212
v 0.476732 0.005353 0.719415
v 0.640160 0.005353 -0.251311
v 0.476732 0.005353 -0.251311
v 0.476733 1.278685 -0.438718
v 0.640160 1.278685 -0.438718
v 0.393277 1.326400 -0.147940
v 0.640160 1.278685 -0.283921
v 0.476733 2.930220 -0.478720
v 0.640160 2.930220 -0.478720
v 0.476732 2.930220 -0.323923
v 0.640160 2.930220 -0.323923
v 0.476733 2.789583 -0.475314
v 0.640160 2.789583 -0.475313
v 0.640160 2.789583 -0.320516
v 0.476732 2.789583 -0.320517
v 0.537967 1.278685 0.732747
v 0.476732 1.278685 -0.283921
v 0.640160 2.007477 -0.456370
v 0.476732 2.007477 -0.301574
v 0.476733 2.007477 -0.456370
v 0.640160 2.007477 -0.301573
v 0.397519 2.666306 -0.279750
v 0.397519 2.144109 -0.267102
v -0.640160 1.175704 -0.438718
v -0.640160 1.175704 0.841602
v -0.640160 1.278685 0.841602
v -0.476732 1.175704 -0.438718
v -0.476732 1.175704 0.841602
v -0.476732 1.278685 0.841602
v -0.640160 1.175704 -0.283921
v -0.640160 1.175704 0.686805
v -0.640160 1.278685 0.686806
v -0.454512 1.326400 0.596766
v -0.476732 1.175704 -0.283921
v -0.476732 1.175704 0.686805
v -0.476732 0.005353 -0.406108
v -0.640160 0.005353 -0.406108
v -0.640160 0.005353 0.719416
v -0.640160 0.005353 0.874212
v -0.476732 0.005353 0.874212
v -0.476732 0.005353 0.719415
v -0.640160 0.005353 -0.251311
v -0.476732 0.005353 -0.251311
v -0.476733 1.278685 -0.438718
v -0.640160 1.278685 -0.438718
v -0.393277 1.326400 -0.147940
v -0.640160 1.278685 -0.283921
v -0.476733 2.930220 -0.478720
v -0.640160 2.930220 -0.478720
v -0.476732 2.930220 -0.323923
v -0.640160 2.930220 -0.323923
v 0.000000 1.175704 -0.438718
v 0.000000 1.175704 0.841602
v 0.000000 1.278685 -0.438718
v 0.000000 1.278685 0.841602
v 0.000000 1.175704 -0.283921
v 0.000000 1.175704 0.686805
v 0.000000 1.278685 -0.283921
v 0.000000 1.278685 0.732747
v -0.476733 2.789583 -0.475314
v -0.640160 2.789583 -0.475313
v -0.640160 2.789583 -0.320516
v -0.476732 2.789583 -0.320517
v -0.000000 2.930220 -0.478721
v 0.000000 2.930220 -0.323925
v -0.000000 2.789583 -0.475315
v 0.000000 2.789583 -0.320518
v -0.537967 1.278685 0.732747
v 0.000000 1.326400 0.596766
v 0.000000 1.326400 -0.147941
v -0.476732 1.278685 -0.283921
v -0.640160 2.007477 -0.456370
v -0.476732 2.007477 -0.301573
v -0.476733 2.007477 -0.456370
v -0.640160 2.007477 -0.301573
v 0.000000 2.789583 -0.320517
v 0.000000 2.007477 -0.301574
v -0.397519 2.666306 -0.279750
v -0.397519 2.144109 -0.267101
v 0.000000 2.666306 -0.279750
v 0.000000 2.144109 -0.267102
vt 0.271369 0.621597
vt 0.250105 0.634033
vt 0.250105 0.600843
vt 0.280343 0.600843
vt 0.533000 0.237768
vt 0.533000 0.258678
vt 0.501075 0.258678
vt 0.501075 0.237768
vt 0.219794 0.362263
vt 0.220309 0.341356
vt 0.250538 0.342161
vt 0.250023 0.363068
vt 0.771292 0.260017
vt 0.751180 0.260017
vt 0.751180 0.226827
vt 0.771292 0.226827
vt 0.626128 0.237768
vt 0.626128 0.258678
vt 0.271369 0.730852
vt 0.250105 0.730852
vt 0.125052 0.829423
vt 0.218180 0.829423
vt 0.218180 0.860860
vt 0.125052 0.860860
vt 0.125052 0.600843
vt 0.218180 0.600843
vt 0.218180 0.632280
vt 0.125052 0.632280
vt 0.250538 0.600843
vt 0.220309 0.600038
vt 0.500208 0.730852
vt 0.469969 0.730852
vt 0.469969 0.634033
vt 0.500208 0.634033
vt 0.443373 0.730852
vt 0.297899 0.730852
vt 0.297899 0.638546
vt 0.443373 0.650982
vt 0.000000 0.356411
vt 0.000515 0.335504
vt 0.030744 0.336309
vt 0.030229 0.357216
vt 0.469969 0.600843
vt 0.250105 0.632280
vt 0.250105 0.829423
vt 0.000000 0.894050
vt 0.000000 0.860860
vt 0.030239 0.860860
vt 0.030239 0.894050
vt 0.120955 0.860860
vt 0.120955 0.894050
vt 0.090716 0.894050
vt 0.090716 0.860860
vt 0.811640 0.714546
vt 0.841867 0.713670
vt 0.841867 0.951446
vt 0.811640 0.952321
vt 0.905729 0.454529
vt 0.935956 0.453653
vt 0.935956 0.691429
vt 0.905729 0.692305
vt 0.841879 0.691426
vt 0.873804 0.691426
vt 0.873804 0.929198
vt 0.841879 0.929198
vt 1.000000 0.226826
vt 1.000000 0.260017
vt 0.905729 0.691421
vt 0.873804 0.691421
vt 0.873804 0.453653
vt 0.905729 0.453653
vt 0.501075 0.000000
vt 0.533000 0.000000
vt 0.030744 0.594991
vt 0.000515 0.594186
vt 0.719255 0.901112
vt 0.751180 0.901112
vt 0.751180 0.929682
vt 0.719255 0.929682
vt 0.501075 0.565609
vt 0.533000 0.565609
vt 0.533000 0.594178
vt 0.501075 0.594178
vt 0.811640 0.680480
vt 0.841879 0.680480
vt 0.841879 0.713670
vt 0.811640 0.713670
vt 0.031154 0.029375
vt 0.000925 0.028570
vt 0.000963 0.000000
vt 0.031192 0.000805
vt 0.751180 0.130008
vt 0.771292 0.130008
vt 0.781410 0.612536
vt 0.751180 0.613297
vt 0.751180 0.454414
vt 0.781410 0.453653
vt 0.030942 0.188257
vt 0.000713 0.187452
vt 0.501075 0.406728
vt 0.533000 0.406728
vt 0.719255 0.742230
vt 0.751180 0.742230
vt 0.626128 0.929682
vt 0.626128 0.901112
vt 0.811640 0.583662
vt 0.841879 0.583662
vt 0.935956 0.453653
vt 0.966195 0.453653
vt 0.966195 0.550472
vt 0.935956 0.550472
vt 0.626128 0.565609
vt 0.626128 0.594178
vt 0.719255 0.594178
vt 0.751180 0.594178
vt 0.781410 0.760588
vt 0.751180 0.761349
vt 0.703781 0.875895
vt 0.703781 0.769813
vt 0.626128 0.875895
vt 0.626128 0.769813
vt 0.626128 0.901112
vt 0.626128 0.742230
vt 0.751180 0.260017
vt 0.904004 0.260017
vt 0.904004 0.356835
vt 0.751180 0.356835
vt 0.271369 0.840106
vt 0.280343 0.860860
vt 0.250105 0.860860
vt 0.250105 0.827670
vt 0.719255 0.237768
vt 0.751180 0.237768
vt 0.751180 0.258678
vt 0.719255 0.258678
vt 0.470331 0.238580
vt 0.500560 0.237775
vt 0.501075 0.258682
vt 0.470847 0.259487
vt 0.771292 0.000000
vt 0.771292 0.033190
vt 0.751180 0.033190
vt 0.751180 0.000000
vt 0.031925 0.860860
vt 0.031925 0.829423
vt 0.031925 0.632280
vt 0.031925 0.600843
vt 0.470846 0.000805
vt 0.501075 0.000000
vt 0.500208 0.827670
vt 0.469969 0.827670
vt 0.443373 0.810721
vt 0.297899 0.823157
vt 0.250538 0.244432
vt 0.280767 0.243627
vt 0.281282 0.264534
vt 0.251053 0.265339
vt 0.469969 0.860860
vt 0.000000 0.829423
vt 0.000000 0.632280
vt 0.030239 0.860860
vt 0.060478 0.860860
vt 0.060478 0.894050
vt 0.030239 0.894050
vt 0.060478 0.860860
vt 0.090716 0.860860
vt 0.090716 0.894050
vt 0.060478 0.894050
vt 0.935956 0.693180
vt 0.935956 0.930956
vt 0.905729 0.930080
vt 0.905729 0.692305
vt 0.781407 0.762224
vt 0.781407 1.000000
vt 0.751180 0.999124
vt 0.751180 0.761349
vt 0.873804 0.453653
vt 0.873804 0.691426
vt 0.841879 0.691426
vt 0.841879 0.453653
vt 1.000000 0.000000
vt 1.000000 0.033190
vt 0.905729 0.691426
vt 0.905729 0.929193
vt 0.873804 0.929193
vt 0.873804 0.691426
vt 0.719255 0.000000
vt 0.751180 0.000000
vt 0.251053 0.006657
vt 0.281282 0.005852
vt 0.533000 0.901112
vt 0.533000 0.929682
vt 0.501075 0.929682
vt 0.501075 0.901112
vt 0.751180 0.565609
vt 0.751180 0.594178
vt 0.719255 0.594178
vt 0.719255 0.565609
vt 0.811640 0.486843
vt 0.811640 0.453653
vt 0.841879 0.453653
vt 0.841879 0.486843
vt 0.281692 0.571468
vt 0.281730 0.600038
vt 0.251501 0.600843
vt 0.251463 0.572273
vt 0.781410 0.612536
vt 0.781410 0.453653
vt 0.811640 0.454415
vt 0.811640 0.613297
vt 0.281479 0.412586
vt 0.251250 0.413391
vt 0.751180 0.406728
vt 0.719255 0.406728
vt 0.533000 0.742230
vt 0.501075 0.742230
vt 0.808880 0.792786
vt 0.781407 0.793478
vt 0.781407 0.762041
vt 0.808880 0.761349
vt 0.935956 0.647290
vt 0.966195 0.647290
vt 0.533000 0.594178
vt 0.501075 0.594178
vt 0.781410 0.760588
vt 0.811640 0.761349
vt 0.548474 0.769813
vt 0.548474 0.875895
vt 0.751180 0.453653
vt 0.904004 0.453653
vn 0.0000 1.0000 0.0000
vn 0.0000 0.0000 -1.0000
vn 1.0000 -0.0000 0.0000
vn -0.0000 -0.0000 1.0000
vn 0.0000 -1.0000 0.0000
vn -1.0000 -0.0000 -0.0000
vn 0.0000 0.0279 0.9996
vn 0.0000 -0.0279 -0.9996
vn -0.0000 0.0242 0.9997
vn 0.0000 -0.0242 -0.9997
vn -0.0000 0.9436 0.3311
vn 0.4961 0.8676 -0.0345
vn 0.0000 0.9436 -0.3311
vn 0.4304 0.0219 0.9024
vn 0.0000 0.3140 0.9494
vn 0.0000 -0.2446 0.9696
vn -0.4961 0.8676 -0.0345
vn -0.4304 0.0219 0.9024
s off
f 33/1/1 6/2/1 3/3/1 9/4/1
f 4/5/2 21/6/2 22/7/2 1/8/2
f 8/9/3 9/10/3 3/11/3 2/12/3
f 2/13/4 3/14/4 6/15/4 5/16/4
f 69/17/2 71/18/2 21/6/2 4/5/2
f 76/19/1 72/20/1 6/2/1 33/1/1
f 74/21/5 12/22/5 5/23/5 70/24/5
f 69/25/5 4/26/5 11/27/5 73/28/5
f 73/28/5 11/27/5 12/22/5 74/21/5
f 8/9/3 2/12/3 16/29/3 15/30/3
f 71/31/1 75/32/1 34/33/1 21/34/1
f 87/35/1 86/36/1 10/37/1 23/38/1
f 1/39/3 22/40/3 24/41/3 7/42/3
f 7/42/3 24/41/3 9/10/3 8/9/3
f 34/33/1 33/1/1 9/4/1 24/43/1
f 11/27/5 7/44/5 8/45/5 12/22/5
f 18/46/5 15/47/5 16/48/5 17/49/5
f 13/50/5 14/51/5 19/52/5 20/53/5
f 5/54/6 12/55/6 18/56/6 17/57/6
f 11/58/6 4/59/6 13/60/6 20/61/6
f 7/62/7 11/63/7 20/64/7 19/65/7
f 2/13/7 5/16/7 17/66/7 16/67/7
f 12/68/8 8/69/8 15/70/8 18/71/8
f 4/5/8 1/8/8 14/72/8 13/73/8
f 1/39/3 7/42/3 19/74/3 14/75/3
f 32/76/9 31/77/9 28/78/9 27/79/9
f 30/80/10 29/81/10 25/82/10 26/83/10
f 25/84/1 27/85/1 28/86/1 26/87/1
f 31/88/3 30/89/3 26/90/3 28/91/3
f 5/16/4 6/15/4 72/92/4 70/93/4
f 37/94/6 36/95/6 32/96/6 29/97/6
f 38/98/3 35/99/3 30/89/3 31/88/3
f 35/100/10 37/101/10 29/81/10 30/80/10
f 36/102/9 38/103/9 31/77/9 32/76/9
f 32/76/9 27/79/9 82/104/9 84/105/9
f 27/85/1 25/84/1 81/106/1 82/107/1
f 29/108/5 32/109/5 84/110/5 83/111/5
f 25/82/10 29/81/10 83/112/10 81/113/10
f 10/37/11 86/36/11 76/19/11 33/1/11
f 23/38/12 10/37/12 33/1/12 34/33/12
f 87/35/13 23/38/13 34/33/13 75/32/13
f 34/114/9 24/115/9 38/103/9 36/102/9
f 22/7/10 21/6/10 37/101/10 35/100/10
f 24/41/3 22/40/3 35/99/3 38/98/3
f 21/116/6 34/117/6 36/95/6 37/94/6
f 32/76/14 39/118/14 40/119/14 36/102/14
f 39/118/9 97/120/9 98/121/9 40/119/9
f 93/122/15 97/120/15 39/118/15 32/76/15
f 36/102/16 40/119/16 98/121/16 94/123/16
f 32/124/10 36/125/10 94/126/10 93/127/10
f 85/128/1 49/129/1 43/130/1 46/131/1
f 44/132/2 41/133/2 62/134/2 61/135/2
f 48/136/6 42/137/6 43/138/6 49/139/6
f 42/140/4 45/141/4 46/142/4 43/143/4
f 69/17/2 44/132/2 61/135/2 71/18/2
f 76/19/1 85/128/1 46/131/1 72/20/1
f 74/21/5 70/24/5 45/144/5 52/145/5
f 69/25/5 73/28/5 51/146/5 44/147/5
f 73/28/5 74/21/5 52/145/5 51/146/5
f 48/136/6 55/148/6 56/149/6 42/137/6
f 71/31/1 61/150/1 88/151/1 75/32/1
f 87/35/1 63/152/1 50/153/1 86/36/1
f 41/154/6 47/155/6 64/156/6 62/157/6
f 47/155/6 48/136/6 49/139/6 64/156/6
f 88/151/1 64/158/1 49/129/1 85/128/1
f 51/146/5 52/145/5 48/159/5 47/160/5
f 58/161/5 57/162/5 56/163/5 55/164/5
f 53/165/5 60/166/5 59/167/5 54/168/5
f 45/169/3 57/170/3 58/171/3 52/172/3
f 51/173/3 60/174/3 53/175/3 44/176/3
f 47/177/7 59/178/7 60/179/7 51/180/7
f 42/140/7 56/181/7 57/182/7 45/141/7
f 52/183/8 58/184/8 55/185/8 48/186/8
f 44/132/8 53/187/8 54/188/8 41/133/8
f 41/154/6 54/189/6 59/190/6 47/155/6
f 80/191/9 67/192/9 68/193/9 79/194/9
f 78/195/10 66/196/10 65/197/10 77/198/10
f 65/199/1 66/200/1 68/201/1 67/202/1
f 79/203/6 68/204/6 66/205/6 78/206/6
f 45/141/4 70/93/4 72/92/4 46/142/4
f 91/207/3 77/208/3 80/209/3 90/210/3
f 92/211/6 79/203/6 78/206/6 89/212/6
f 89/213/10 78/195/10 77/198/10 91/214/10
f 90/215/9 80/191/9 79/194/9 92/216/9
f 80/191/9 84/105/9 82/104/9 67/192/9
f 83/217/3 81/218/3 82/219/3 84/220/3
f 67/202/1 82/107/1 81/106/1 65/199/1
f 77/221/5 83/111/5 84/110/5 80/222/5
f 65/197/10 81/113/10 83/112/10 77/198/10
f 50/153/11 85/128/11 76/19/11 86/36/11
f 63/152/17 88/151/17 85/128/17 50/153/17
f 87/35/13 75/32/13 88/151/13 63/152/13
f 88/223/9 90/215/9 92/216/9 64/224/9
f 62/134/10 89/213/10 91/214/10 61/135/10
f 64/156/6 92/211/6 89/212/6 62/157/6
f 61/225/3 91/207/3 90/210/3 88/226/3
f 80/191/18 90/215/18 96/227/18 95/228/18
f 95/228/9 96/227/9 98/121/9 97/120/9
f 93/122/15 80/191/15 95/228/15 97/120/15
f 90/215/16 94/123/16 98/121/16 96/227/16
f 80/229/10 93/127/10 94/126/10 90/230/10
