# Blender v2.79 (sub 0) OBJ File: ''
# www.blender.org
mtllib Sky.mtl
o Cube
v 100.000000 -100.000000 -99.999992
v 100.000000 -100.000000 100.000000
v -100.000015 -100.000000 99.999985
v -99.999962 -100.000000 -100.000038
v 100.000046 100.000000 -99.999947
v 99.999931 100.000000 100.000061
v -100.000038 100.000000 99.999962
v -99.999992 100.000000 -100.000000
vt 0.333333 0.000000
vt 0.666667 0.000000
vt 0.666667 0.500000
vt 0.333333 0.500000
vt 0.000000 0.000000
vt 0.333333 0.000000
vt 0.333333 0.500000
vt 0.000000 0.500000
vt 0.333333 0.500000
vt 0.666667 0.500000
vt 0.666667 1.000000
vt 0.333333 1.000000
vt 0.666667 0.000000
vt 1.000000 0.000000
vt 1.000000 0.500000
vt 0.000000 1.000000
vt 0.000000 0.500000
vt 0.333333 0.500000
vt 0.333333 1.000000
vn 0.0000 -1.0000 -0.0000
vn -1.0000 -0.0000 -0.0000
vn 0.0000 0.0000 -1.0000
vn 1.0000 0.0000 0.0000
vn -0.0000 -0.0000 1.0000
usemtl Material
s off
f 5/1/1 6/2/1 7/3/1 8/4/1
f 1/5/2 2/6/2 6/7/2 5/8/2
f 2/9/3 3/10/3 7/11/3 6/12/3
f 3/10/4 4/13/4 8/14/4 7/15/4
f 5/16/5 8/17/5 4/18/5 1/19/5
